# xmcd CD database file
#
# Track frame offsets:
#	150
#	28098
#	53577
#	77155
#	89918
#	126114
#	149205
#	177112
#	202578
#	227913
#
# Disc length: 3468 seconds
#
# Revision: 0
# Processed by: cddbd v1.5.2PL0 Copyright (c) Steve Scherf et al.
# Submitted via: CDex 1.51
#
DISCID=890d8a0a
DTITLE=Pablo Held - Forest of Oblivion
DYEAR=2008
DGENRE=Jazz
TTITLE0=Two Qustions One Answer
TTITLE1=Forest of Oblivion
TTITLE2=Hand Jive
TTITLE3=Interlude
TTITLE4=Phasen
TTITLE5=Melody
TTITLE6=Vertigo
TTITLE7=Pájaro Triste
TTITLE8=Ana Maria
TTITLE9=Phase II
EXTD=YEAR: 2008
EXTT0=
EXTT1=
EXTT2=
EXTT3=
EXTT4=
EXTT5=
EXTT6=
EXTT7=
EXTT8=
EXTT9=
PLAYORDER=
